<?xml version="1.0"?>
<svg xmlns="http://www.w3.org/2000/svg" xmlns:xlink="http://www.w3.org/1999/xlink" version="1.1" id="Capa_1" x="0px" y="0px" viewBox="0 0 512 512" style="enable-background:new 0 0 512 512;" xml:space="preserve" width="512px" height="512px"><g transform="matrix(0.465881 0 0 0.465881 136.734 136.734)"><g>
	<g>
		<path d="M504,160h-24v-32c0-13.255-10.745-24-24-24H56c-13.255,0-24,10.745-24,24v32H8c-4.418,0-8,3.582-8,8v176    c0,4.418,3.582,8,8,8h24v48c0,4.418,3.582,8,8,8h32c4.418,0,8-3.582,8-8v-48h352v48c0,4.418,3.582,8,8,8h32c4.418,0,8-3.582,8-8    v-48h24c4.418,0,8-3.582,8-8V168C512,163.582,508.418,160,504,160z M48,128c0-4.418,3.582-8,8-8h400c4.418,0,8,3.582,8,8v32h-24    c-4.418,0-8,3.582-8,8v48H80v-48c0-4.418-3.582-8-8-8H48V128z M432,232v40H264v-40H432z M248,232v40H80v-40H248z M64,392H48v-40    h16V392z M464,392h-16v-40h16V392z M496,336H16V176h48v104c0,4.418,3.582,8,8,8h368c4.418,0,8-3.582,8-8V176h48V336z" data-original="#000000" class="active-path" data-old_color="#000000" fill="#868686"/>
	</g>
</g><g>
	<g>
		<path d="M168,144c-13.255,0-24,10.745-24,24s10.745,24,24,24s24-10.745,24-24S181.255,144,168,144z M168,176c-4.418,0-8-3.582-8-8    s3.582-8,8-8s8,3.582,8,8S172.418,176,168,176z" data-original="#000000" class="active-path" data-old_color="#000000" fill="#868686"/>
	</g>
</g><g>
	<g>
		<path d="M344,144c-13.255,0-24,10.745-24,24s10.745,24,24,24s24-10.745,24-24S357.255,144,344,144z M344,176c-4.418,0-8-3.582-8-8    s3.582-8,8-8s8,3.582,8,8S348.418,176,344,176z" data-original="#000000" class="active-path" data-old_color="#000000" fill="#868686"/>
	</g>
</g></g> </svg>
