<svg xmlns="http://www.w3.org/2000/svg" xmlns:xlink="http://www.w3.org/1999/xlink" viewBox="0 0 1920 1540" preserveAspectRatio="none">
  <defs>
    <linearGradient id="linear-gradient" x1="0.028" y1="1" x2="0.972" gradientUnits="objectBoundingBox">
      <stop offset="0" stop-color="#013f6a"/>
      <stop offset="1" stop-color="#3161a4"/>
    </linearGradient>
    <linearGradient id="linear-gradient-2" x1="0" y1="0.786" x2="1" y2="0.214" xlink:href="#linear-gradient"/>
  </defs>
  <g id="bg" transform="translate(0.361 -3181.927)">
    <path id="Shape_12" data-name="Shape 12" d="M193.751,3967.339s-65.3,81.548-94.751,151.122c0,0,383.562,172.175,699.24,129.533C798.24,4247.988,296.568,3903.072,193.751,3967.339Z" transform="translate(19.811 154.39)"  opacity="0.2" style="&#10;    fill: #e92330;&#10;"/>
    <path id="Shape_11" data-name="Shape 11" d="M-.361,3211.273s896.264-207.769,1920,482.364l-.381,1028.29S974.33,4678.02-.168,3984.573Z" transform="translate(0 0)" fill="url(#linear-gradient)" style="&#10;    fill: #e92330;&#10;"/>
    <path id="Shape_13" data-name="Shape 13" d="M955.6,3503.127s331.345-60.858,623.678,37.181l150.213,92.747v1028.75s-281.152-33.337-309.731-44.481C1394.758,4609.121,905.438,4057.867,955.6,3503.127Z" transform="translate(189.882 59.499)" fill="url(#linear-gradient-2)" style="&#10;    fill: #d20b18;&#10;"/>
  </g>
</svg>