<?xml version="1.0"?>
<svg xmlns="http://www.w3.org/2000/svg" xmlns:xlink="http://www.w3.org/1999/xlink" version="1.1" id="Capa_1" x="0px" y="0px" viewBox="0 0 511.999 511.999" style="enable-background:new 0 0 511.999 511.999;" xml:space="preserve" width="512px" height="512px"><g transform="matrix(0.404732 0 0 0.404732 152.388 152.388)"><g>
	<g>
		<g>
			<path d="M303.564,404.997h-20.65V221.322h71.127c6.812,0,12.354-5.538,12.354-12.344v-20.596h45.889     c6.812,0,12.354-5.538,12.354-12.344v-29.064c0-6.807-5.542-12.344-12.354-12.344H99.717c-6.812,0-12.354,5.538-12.354,12.344     v29.064c0,6.807,5.542,12.344,12.354,12.344h45.889v20.596c0,6.806,5.542,12.344,12.354,12.344h71.127v183.676h-20.65     c-18.587,0-33.709,15.099-33.709,33.658c0,6.807,5.542,12.344,12.354,12.344h82.51c4.143,0,7.5-3.358,7.5-7.5     c0-4.142-3.357-7.5-7.5-7.5h-79.674c1.297-9.034,9.107-16.002,18.52-16.002h95.129c9.412,0,17.223,6.968,18.52,16.002h-23.373     c-4.143,0-7.5,3.358-7.5,7.5c0,4.142,3.357,7.5,7.5,7.5h26.209c6.812,0,12.354-5.538,12.354-12.344     C337.273,420.096,322.151,404.997,303.564,404.997z M267.914,404.997h-23.828V221.322h23.828V404.997z M236.587,206.322h-75.98     v-17.939h20.318c4.143,0,7.5-3.358,7.5-7.5c0-4.142-3.357-7.5-7.5-7.5h-78.563V149.63h307.273v23.753H210.048     c-4.143,0-7.5,3.358-7.5,7.5c0,4.142,3.357,7.5,7.5,7.5h141.347v17.939h-75.98H236.587z" data-original="#000000" class="active-path" data-old_color="#000000" fill="#868686"/>
			<path d="M143.398,256.701h-89.57V102.409C53.828,79.576,35.223,61,12.354,61C5.542,61,0,66.538,0,73.344V288.42     c0,7.581,3.854,14.279,9.707,18.244v18.57c0,5.898,4.164,10.836,9.707,12.051V441.56c0,4.142,3.357,7.5,7.5,7.5     s7.5-3.358,7.5-7.5v-55.542h91.777v55.542c0,4.142,3.357,7.5,7.5,7.5s7.5-3.358,7.5-7.5V337.287     c5.543-1.215,9.707-6.154,9.707-12.051v-16.096c8.483-3.072,14.561-11.2,14.561-20.719v-9.688     C165.459,266.583,155.563,256.701,143.398,256.701z M126.191,371.021H34.414v-33.441h91.777V371.021z M135.898,322.579H24.707     v-12.126h111.191V322.579z M150.459,288.42c0,3.877-3.167,7.032-7.061,7.032H22.061c-3.894,0-7.061-3.155-7.061-7.032V76.13     c13.36,1.329,23.828,12.606,23.828,26.278v161.792c0,4.142,3.357,7.5,7.5,7.5h97.07c3.894,0,7.061,3.155,7.061,7.032V288.42z" data-original="#000000" class="active-path" data-old_color="#000000" fill="#868686"/>
			<path d="M499.646,61c-22.869,0-41.475,18.576-41.475,41.409v154.292h-89.57c-12.164,0-22.061,9.884-22.061,22.032v9.688     c0,9.52,6.078,17.647,14.561,20.719v16.096c0,5.898,4.164,10.836,9.707,12.051v104.275c0,4.142,3.357,7.5,7.5,7.5     s7.5-3.358,7.5-7.5v-55.542h91.777v55.542c0,4.142,3.357,7.5,7.5,7.5s7.5-3.358,7.5-7.5V337.287     c5.543-1.215,9.707-6.154,9.707-12.051v-18.57c5.853-3.966,9.707-10.664,9.707-18.244V73.344C512,66.538,506.458,61,499.646,61z      M477.586,371.021h-91.777v-33.441h91.777V371.021z M487.293,322.579H376.102v-12.126h111.191V322.579z M497,288.422     c0,3.877-3.167,7.032-7.061,7.032H368.602c-3.894,0-7.061-3.155-7.061-7.032v-9.689c0-3.877,3.167-7.032,7.061-7.032h97.07     c4.143,0,7.5-3.358,7.5-7.5V102.409c0-13.671,10.468-24.949,23.828-26.278V288.422z" data-original="#000000" class="active-path" data-old_color="#000000" fill="#868686"/>
		</g>
	</g>
</g></g> </svg>
