<?xml version="1.0"?>
<svg xmlns="http://www.w3.org/2000/svg" height="512px" viewBox="0 0 60 60" width="512px"><g transform="matrix(0.429889 0 0 0.429889 17.1033 17.1033)"><g id="Page-1" fill="none" fill-rule="evenodd"><g id="029---Dryer" fill="rgb(0,0,0)" fill-rule="nonzero"><path id="Shape" d="m55 0h-50c-2.76005315.00330612-4.99669388 2.23994685-5 5v50c.00330612 2.7600532 2.23994685 4.9966939 5 5h50c2.7600532-.0033061 4.9966939-2.2399468 5-5v-50c-.0033061-2.76005315-2.2399468-4.99669388-5-5zm3 5v9h-32v-12h29c1.6568542 0 3 1.34314575 3 3zm-53-3h19v12h-22v-9c0-1.65685425 1.34314575-3 3-3zm50 56h-50c-1.65685425 0-3-1.3431458-3-3v-39h56v39c0 1.6568542-1.3431458 3-3 3z" data-original="#000000" class="active-path" data-old_color="#000000" fill="#868686"/><path id="Shape" d="m52 12c2.209139 0 4-1.790861 4-4s-1.790861-4-4-4-4 1.790861-4 4 1.790861 4 4 4zm0-6c1.1045695 0 2 .8954305 2 2s-.8954305 2-2 2-2-.8954305-2-2 .8954305-2 2-2z" data-original="#000000" class="active-path" data-old_color="#000000" fill="#868686"/><path id="Shape" d="m42 12c2.209139 0 4-1.790861 4-4s-1.790861-4-4-4-4 1.790861-4 4 1.790861 4 4 4zm0-6c1.1045695 0 2 .8954305 2 2s-.8954305 2-2 2-2-.8954305-2-2 .8954305-2 2-2z" data-original="#000000" class="active-path" data-old_color="#000000" fill="#868686"/><path id="Shape" d="m8 12c2.209139 0 4-1.790861 4-4s-1.790861-4-4-4-4 1.790861-4 4 1.790861 4 4 4zm0-6c1.1045695 0 2 .8954305 2 2s-.8954305 2-2 2-2-.8954305-2-2 .8954305-2 2-2z" data-original="#000000" class="active-path" data-old_color="#000000" fill="#868686"/><circle id="Oval" cx="30" cy="8" r="1" data-original="#000000" class="active-path" data-old_color="#000000" fill="#868686"/><circle id="Oval" cx="34" cy="8" r="1" data-original="#000000" class="active-path" data-old_color="#000000" fill="#868686"/><circle id="Oval" cx="16" cy="8" r="1" data-original="#000000" class="active-path" data-old_color="#000000" fill="#868686"/><circle id="Oval" cx="20" cy="8" r="1" data-original="#000000" class="active-path" data-old_color="#000000" fill="#868686"/><path id="Shape" d="m30 18c-10.4934102 0-19 8.5065898-19 19s8.5065898 19 19 19 19-8.5065898 19-19c-.0115735-10.4886126-8.5113874-18.9884265-19-19zm0 36c-9.3888407 0-17-7.6111593-17-17s7.6111593-17 17-17 17 7.6111593 17 17c-.010471 9.3845001-7.6154999 16.989529-17 17z" data-original="#000000" class="active-path" data-old_color="#000000" fill="#868686"/><path id="Shape" d="m30 22c-8.2842712 0-15 6.7157288-15 15s6.7157288 15 15 15 15-6.7157288 15-15c-.0093685-8.2803876-6.7196124-14.9906315-15-15zm0 28c-7.1797017 0-13-5.8202983-13-13s5.8202983-13 13-13 13 5.8202983 13 13c-.008266 7.1762751-5.8237249 12.991734-13 13z" data-original="#000000" class="active-path" data-old_color="#000000" fill="#868686"/><path id="Shape" d="m5 18c-.55228475 0-1 .4477153-1 1v2c0 .5522847.44771525 1 1 1s1-.4477153 1-1v-2c0-.5522847-.44771525-1-1-1z" data-original="#000000" class="active-path" data-old_color="#000000" fill="#868686"/><path id="Shape" d="m5 24c-.55228475 0-1 .4477153-1 1v21c0 .5522847.44771525 1 1 1s1-.4477153 1-1v-21c0-.5522847-.44771525-1-1-1z" data-original="#000000" class="active-path" data-old_color="#000000" fill="#868686"/><path id="Shape" d="m30.46 36.112c-1.0148324-.6959579-1.5734698-1.8866973-1.46-3.112-.1105278-1.2184107.4420624-2.4022598 1.447-3.1.4942948-.2468713.6948713-.8477051.448-1.342-.2468713-.4942948-.8477052-.6948713-1.342-.448-1.6961279 1.0265436-2.6802384 2.9115026-2.553 4.89-.1291391 1.9750983.8495238 3.8584465 2.54 4.888 1.0148324.6959579 1.5734698 1.8866973 1.46 3.112.1122301 1.2243385-.4452636 2.4138879-1.458 3.111-.4674354.2615195-.6458143.8449023-.4045639 1.3231141.2412503.4782118.816454.681424 1.3045639.4608859 1.6997114-1.0260998 2.6861313-2.9137171 2.558-4.895.1291391-1.9750983-.8495238-3.8584465-2.54-4.888z" data-original="#000000" class="active-path" data-old_color="#000000" fill="#868686"/><path id="Shape" d="m36.46 36.112c-1.0148324-.6959579-1.5734698-1.8866973-1.46-3.112-.1105278-1.2184107.4420624-2.4022598 1.447-3.1.3197527-.1596977.5300187-.4778505.5515928-.8346134.0215741-.3567628-.1488214-.6979349-.447-.895-.2981787-.1970651-.6788401-.2200843-.9985928-.0603866-1.6961279 1.0265436-2.6802384 2.9115026-2.553 4.89-.1291391 1.9750983.8495238 3.8584465 2.54 4.888 1.0148324.6959579 1.5734698 1.8866973 1.46 3.112.1122301 1.2243385-.4452636 2.4138879-1.458 3.111-.492638.2499088-.6894088.851862-.4395 1.3445s.851862.6894088 1.3445.4395c1.6977929-1.0273924 2.6821538-2.9147588 2.553-4.895.1291391-1.9750983-.8495238-3.8584465-2.54-4.888z" data-original="#000000" class="active-path" data-old_color="#000000" fill="#868686"/><path id="Shape" d="m24.46 36.112c-1.0148324-.6959579-1.5734698-1.8866973-1.46-3.112-.1105278-1.2184107.4420624-2.4022598 1.447-3.1.4942948-.2468713.6948713-.8477051.448-1.342-.2468713-.4942948-.8477052-.6948713-1.342-.448-1.6961279 1.0265436-2.6802384 2.9115026-2.553 4.89-.1291391 1.9750983.8495238 3.8584465 2.54 4.888 1.0148324.6959579 1.5734698 1.8866973 1.46 3.112.1122301 1.2243385-.4452636 2.4138879-1.458 3.111-.4674354.2615195-.6458143.8449023-.4045639 1.3231141.2412503.4782118.816454.681424 1.3045639.4608859 1.6997114-1.0260998 2.6861313-2.9137171 2.558-4.895.1291391-1.9750983-.8495238-3.8584465-2.54-4.888z" data-original="#000000" class="active-path" data-old_color="#000000" fill="#868686"/></g></g></g> </svg>
