<?xml version="1.0"?>
<svg xmlns="http://www.w3.org/2000/svg" xmlns:xlink="http://www.w3.org/1999/xlink" version="1.1" id="Capa_1" x="0px" y="0px" width="512px" height="512px" viewBox="0 0 452.388 452.388" style="enable-background:new 0 0 452.388 452.388;" xml:space="preserve"><g transform="matrix(0.417121 0 0 0.417121 131.844 131.844)"><g>
	<g id="Layer_8_14_">
		<path d="M441.677,43.643H10.687C4.785,43.643,0,48.427,0,54.329v297.425c0,5.898,4.785,10.676,10.687,10.676h162.069v25.631    c0,0.38,0.074,0.722,0.112,1.089h-23.257c-5.407,0-9.796,4.389-9.796,9.795c0,5.408,4.389,9.801,9.796,9.801h158.506    c5.406,0,9.795-4.389,9.795-9.801c0-5.406-4.389-9.795-9.795-9.795h-23.256c0.032-0.355,0.115-0.709,0.115-1.089V362.43H441.7    c5.898,0,10.688-4.782,10.688-10.676V54.329C452.37,48.427,447.589,43.643,441.677,43.643z M422.089,305.133    c0,5.903-4.784,10.687-10.683,10.687H40.96c-5.898,0-10.684-4.783-10.684-10.687V79.615c0-5.898,4.786-10.684,10.684-10.684    h370.446c5.898,0,10.683,4.785,10.683,10.684V305.133z" data-original="#000000" class="active-path" data-old_color="#000000" fill="#868686"/>
	</g>
</g></g> </svg>
