<?xml version="1.0"?>
<svg xmlns="http://www.w3.org/2000/svg" xmlns:xlink="http://www.w3.org/1999/xlink" version="1.1" id="Layer_1" x="0px" y="0px" viewBox="0 0 469.333 469.333" style="enable-background:new 0 0 469.333 469.333;" xml:space="preserve" width="512px" height="512px"><g transform="matrix(0.392711 0 0 0.392711 142.51 142.51)"><g>
	<g>
		<path d="M458.667,277.333h-46.729c34.551-22.944,57.396-62.169,57.396-106.667c0-70.583-57.417-128-128-128h-44.5    c-16.604,0-32.208-6.469-43.958-18.208C237.083,8.687,216.125,0,193.833,0H74.667c-3.75,0-7.229,1.969-9.167,5.198    c-1.917,3.219-2,7.219-0.229,10.521L128,132.216v145.117H53.333c-5.896,0-10.667,4.771-10.667,10.667c0,17.646-14.354,32-32,32    C4.771,320,0,324.771,0,330.667v10.667C0,364.865,19.146,384,42.667,384h1.251l9.499,75.99c0.667,5.333,5.208,9.344,10.583,9.344    s9.917-4.01,10.583-9.344L84.082,384h194.503l9.499,75.99c0.667,5.333,5.208,9.344,10.583,9.344s9.917-4.01,10.583-9.344    l9.499-75.99h66.503l9.499,75.99c0.667,5.333,5.208,9.344,10.583,9.344s9.917-4.01,10.583-9.344l9.499-75.99h1.251    c23.521,0,42.667-19.135,42.667-42.667V288C469.333,282.104,464.563,277.333,458.667,277.333z M92.521,21.333h101.313    c16.604,0,32.208,6.469,43.958,18.208C253.583,55.312,274.542,64,296.833,64h44.5C400.146,64,448,111.854,448,170.667    s-47.854,106.667-106.667,106.667H230.375l-81.042-150.497V53.333c0-5.896-4.771-10.667-10.667-10.667S128,47.437,128,53.333    v33.885L92.521,21.333z M206.141,277.333h-56.807V171.835L206.141,277.333z M448,341.333c0,11.76-9.563,21.333-21.333,21.333h-384    c-11.771,0-21.333-9.573-21.333-21.333v-1.073c20.875-4.25,37.333-20.729,41.604-41.594H224h117.333H448V341.333z" data-original="#000000" class="active-path" data-old_color="#000000" fill="#868686"/>
	</g>
</g></g> </svg>
