<?xml version="1.0"?>
<svg xmlns="http://www.w3.org/2000/svg" id="Layer_5" enable-background="new 0 0 64 64" height="512px" viewBox="0 0 64 64" width="512px" class=""><g transform="matrix(0.47534 0 0 0.47534 16.7891 16.7891)"><g><path d="m50 49c-1.654 0-3 1.346-3 3s1.346 3 3 3 3-1.346 3-3-1.346-3-3-3zm0 4c-.552 0-1-.448-1-1s.448-1 1-1 1 .448 1 1-.448 1-1 1z" data-original="#000000" class="active-path" data-old_color="#000000" fill="#868686"/><path d="m18 49c-1.654 0-3 1.346-3 3s1.346 3 3 3 3-1.346 3-3-1.346-3-3-3zm0 4c-.552 0-1-.448-1-1s.448-1 1-1 1 .448 1 1-.448 1-1 1z" data-original="#000000" class="active-path" data-old_color="#000000" fill="#868686"/><path d="m60.236 36-1.334-.667-1.359-8.154c-.403-2.422-2.478-4.179-4.932-4.179h-10.611c-1.627 0-3.061.793-3.974 2h-3.026v-10h-6v-10h-14v10h-6v10h-6v10c-1.103 0-2 .897-2 2v2c0 1.103.897 2 2 2v9c0 1.654 1.346 3 3 3h5.08c.488 3.386 3.401 6 6.92 6s6.432-2.614 6.92-6h18.16c.488 3.386 3.401 6 6.92 6s6.432-2.614 6.92-6h3.08c1.654 0 3-1.346 3-3v-9.528c0-1.906-1.059-3.618-2.764-4.472zm.764 9.382-2-1v-1.382h2zm-40-18.382h2v2h-2zm4 4v-4h2v8h-10v-8h2v4zm12 4h-8v-8h2v4h6zm0-7v1h-4v-2h4.101c-.066.323-.101.658-.101 1zm-4-3h-4-2-4v-8h2v4h6v-4h2zm-6-8h2v2h-2zm-6-10h2v2h-2zm-4 0h2v4h6v-4h2v8h-4-2-4zm-2 10h2v2h-2zm-4 0h2v4h6v-4h2v8h-4-2-4zm-2 10h2v2h-2zm-4 0h2v4h6v-4h2v8h-10zm-2 10h34v2h-34zm2 8h3.719l-.5 2h-3.219zm0 5v-1h4.781l1.5-6h-6.281v-2h32v10h-12.08c-.488-3.386-3.401-6-6.92-6s-6.432 2.614-6.92 6h-5.08c-.552 0-1-.448-1-1zm13 7c-2.757 0-5-2.243-5-5s2.243-5 5-5 5 2.243 5 5-2.243 5-5 5zm31-22h4v2h-1-1c-1.103 0-2-.897-2-2zm0-2c-1.103 0-2 .897-2 2 0 .732.212 1.409.556 2h-4.556v-8h9.046l.749 4zm-6 6h8 1 1v6.685c-.911-.434-1.926-.685-3-.685-3.519 0-6.432 2.614-6.92 6h-.08zm7 18c-2.757 0-5-2.243-5-5s2.243-5 5-5 5 2.243 5 5-2.243 5-5 5zm10-6h-3.08c-.216-1.502-.906-2.852-1.92-3.889v-13.111l-.987-5.366c-.176-.946-1.003-1.634-1.966-1.634h-9.047c-1.103 0-2 .897-2 2v22h-2v-23c0-1.654 1.346-3 3-3h10.611c1.473 0 2.717 1.055 2.959 2.507l1.527 9.16 2.244 1.122c1.023.512 1.659 1.54 1.659 2.683v.528h-4v4.618l4 2v2.382c0 .552-.448 1-1 1z" data-original="#000000" class="active-path" data-old_color="#000000" fill="#868686"/></g></g> </svg>
