<svg id="Layer_1" data-name="Layer 1" xmlns="http://www.w3.org/2000/svg" viewBox="0 0 48 30"><defs><style>.cls-1{fill:#fefefe;}.cls-2{fill:#4a4a4a;}.cls-3{fill:#3f3f3f;}.cls-4{fill:#646567;}.cls-5{fill:#777778;}.cls-6{fill:#020202;}.cls-7{fill:#fdfdfd;}.cls-8{fill:#070707;}.cls-9{fill:#636466;}.cls-10{fill:#f4f5f5;}.cls-11{fill:#707172;}.cls-12{fill:#7b7b7c;}.cls-13{fill:#8d8e8f;}.cls-14{fill:#2e2e2f;}.cls-15{fill:#29292a;}.cls-16{fill:#313132;}.cls-17{fill:#444;}.cls-18{fill:#959598;}.cls-19{fill:#67686a;}.cls-20{fill:#626263;}.cls-21{fill:#080808;}.cls-22{fill:#525253;}.cls-23{fill:#414141;}.cls-24{fill:#222;}.cls-25{fill:#424243;}.cls-26{fill:#a2a4a7;}.cls-27{fill:#58595b;}.cls-28{fill:#050505;}.cls-29{fill:#626365;}.cls-30{fill:#f0f0f1;}.cls-31{fill:#f3f3f3;}.cls-32{fill:#010101;}.cls-33{fill:#767778;}.cls-34{fill:#edeeee;}.cls-35{fill:#e7e7e8;}.cls-36{fill:#adafb2;}.cls-37{fill:#f0f1f2;}.cls-38{fill:#dadadb;}.cls-39{fill:#6a6b6e;}.cls-40{fill:#c2c3c5;}.cls-41{fill:#030304;}.cls-42{fill:#abadb0;}.cls-43{fill:#b7b9bb;}.cls-44{fill:#fbfbfb;}.cls-45{fill:#dedfe0;}.cls-46{fill:#b1b2b3;}.cls-47{fill:#616264;}.cls-48{fill:#d2d3d4;}.cls-49{fill:#e9eaea;}.cls-50{fill:#151516;}.cls-51{fill:#494a4b;}.cls-52{fill:#030303;}.cls-53{fill:#6e6f71;}.cls-54{fill:#68686a;}.cls-55{fill:#5e5e60;}.cls-56{fill:#212122;}.cls-57{fill:#090909;}.cls-58{fill:#fafafa;}.cls-59{fill:#f7f8f8;}.cls-60{fill:#86888a;}.cls-61{fill:#f9f9f9;}.cls-62{fill:#999a9d;}.cls-63{fill:#838487;}.cls-64{fill:#323233;}.cls-65{fill:#232324;}.cls-66{fill:#6e6e70;}.cls-67{fill:#969799;}.cls-68{fill:#8a8b8d;}.cls-69{fill:#474749;}.cls-70{fill:#ea2a39;}.cls-71{fill:#ea2838;}.cls-72{fill:#ea2837;}.cls-73{fill:#ea2736;}.cls-74{fill:#e92434;}.cls-75{fill:#ea2737;}.cls-76{fill:#ea2d3b;}.cls-77{fill:#ea2b39;}.cls-78{fill:#ea2c39;}.cls-79{fill:#ea2938;}.cls-80{fill:#eb313d;}.cls-81{fill:#ea2c3a;}.cls-82{fill:#eb3642;}.cls-83{fill:#fbe2db;}.cls-84{fill:#ee5757;}.cls-85{fill:#fdf4f1;}.cls-86{fill:#f7b5a5;}.cls-87{fill:#f8c0b0;}.cls-88{fill:#f6b3a2;}.cls-89{fill:#38393a;}.cls-90{fill:#ececed;}.cls-91{fill:#fbe5df;}.cls-92{fill:#fce6e0;}.cls-93{fill:#fdf2ee;}</style></defs><title>Artboard 1</title><path class="cls-1" d="M.75,14.45c0-1.23,0-2.45,0-3.67,0-.28.05-.34.33-.34h25.6c0,.07,0,.11-.05.15a2,2,0,0,1-.8.07c-.2,0-.39.07-.59.06H5c-.14,0-.34-.12-.42.12a2.58,2.58,0,0,0,.62,0h18.2a2.23,2.23,0,0,1,.77.06c.23.16.14.36.07.56A.91.91,0,0,1,24,12a1.68,1.68,0,0,1-.8.09H1.89a1.82,1.82,0,0,0-.64.06,1.27,1.27,0,0,0,.65.08H23.08c.27,0,.59-.1.79.2a1.28,1.28,0,0,1-.18.76.59.59,0,0,1-.47.19H3.1a.88.88,0,0,0,.5.05H22.68a1.79,1.79,0,0,1,.76.07c.21.14.15.36.15.57a.91.91,0,0,1-.17.42l-.15.06a3.62,3.62,0,0,1-.57,0H1.45C1.21,14.56,1,14.62.75,14.45Z"/><path class="cls-2" d="M.75,14.45H23.41c0,.18-.18.18-.31.19a3.2,3.2,0,0,1-.44,0H1.4c-.19,0-.41-.06-.57.12H.75Z"/><path class="cls-3" d="M27.08,10.45H41.34a.1.1,0,0,1-.05.14,1.11,1.11,0,0,1-.51.07H28c-.2,0-.4,0-.6,0S27.1,10.67,27.08,10.45Z"/><path class="cls-4" d="M27.08,10.45c.29.17.61,0,.91.09a.23.23,0,0,1-.24.18,3.7,3.7,0,0,1-.94,0c-.1,0-.22,0-.22-.19l.08-.08Z"/><path class="cls-5" d="M41.34,10.54v-.09h.25l.17.08C41.62,10.78,41.49,10.78,41.34,10.54Z"/><path class="cls-1" d="M47,15.11l.08.12c0,.31,0,.62,0,.93a.6.6,0,0,0,.06.22c0,.1,0,.21.11.28a5.65,5.65,0,0,1,0,.82.58.58,0,0,1-.68.4.35.35,0,0,1-.3.06.34.34,0,0,1-.2-.13,1.5,1.5,0,0,0-1.25-1.07,1.38,1.38,0,0,0-.7,0,.5.5,0,0,1-.21,0,.38.38,0,0,0-.4,0,1.75,1.75,0,0,0-1.29,1.32c-.1.11-.1.31-.29.35-3,0-6,0-9,0-.92,0-1.84,0-2.76,0-.19,0-.24-.18-.26-.32a2,2,0,0,0-2.51-1.61.44.44,0,0,0-.29.08l-.08.06a.63.63,0,0,1-.24.16.53.53,0,0,0-.22.2l-.09.14a.86.86,0,0,0-.1.16,1.07,1.07,0,0,0-.07.19c-.19.73-.21.74-1,.74H24.24a.58.58,0,0,1-.51-.2l-.16-.3c.1-.18,0-.33-.07-.49a.25.25,0,0,1,.11-.24,15.25,15.25,0,0,1,2-.06.59.59,0,0,0,.46-.11A2.25,2.25,0,0,1,27.6,16a2.42,2.42,0,0,0,.76,0,1.9,1.9,0,0,1,1.32.66.9.9,0,0,0,.45.31c.5.05,1,0,1.48,0h6.55a1.75,1.75,0,0,1,.6.05c.21.13.15.34.17.53s-.07.36.14.46a14.09,14.09,0,0,0,2.25,0c.24-.2.23-.52.36-.77a1.2,1.2,0,0,1,.15-.24,1.71,1.71,0,0,1,.2-.18l.19-.18a2.74,2.74,0,0,1,1.44-.54.53.53,0,0,0,.35,0,1.15,1.15,0,0,1,.36-.07c.24-.12.09-.33.12-.5V15a4.32,4.32,0,0,0,0-.88c-.09-.23-.33-.35-.41-.59a.23.23,0,0,1,.16-.24.6.6,0,0,1,.24-.05.68.68,0,0,1,.48.21,12.48,12.48,0,0,0,2,1.34C46.86,14.93,47,15,47,15.11Z"/><path class="cls-6" d="M26.41,17.05l.1-.09a1.26,1.26,0,0,1,.3-.18c.1,0,.13-.13.18-.22h0c.07-.08.28.08.26-.15a3.25,3.25,0,0,1,1.08,0c1.05.24,1.48.73,1.69,2a.11.11,0,0,1,0,.16c-.14,0-.18.18-.23.31A1.81,1.81,0,0,1,27.9,20a1.86,1.86,0,0,1-1.72-1.43c0-.08,0-.16-.05-.24s0-.17-.13-.16-.09.09-.09.15c0,.3-.24.21-.39.21-1.69,0-3.37,0-5.05,0H1.12c-.14,0-.14-.1-.14-.2s0-.18.14-.18.22,0,.33,0H23.32c.14,0,.37.15.41-.14a7.62,7.62,0,0,0,2.13.09c.2,0,.2-.14.22-.27a1.74,1.74,0,0,1,.27-.76s0,.08.06.11S26.39,17.1,26.41,17.05Z"/><path class="cls-6" d="M23.58,17.07v.22c0,.08,0,.11-.11.1a2.23,2.23,0,0,0-.36-.05l-5.05,0H2.43c-.18,0-.35,0-.53,0s-.22-.05-.22-.21.08-.18.21-.18a2.62,2.62,0,0,0,.28,0q10.44,0,20.86,0c.15,0,.39.09.44-.07a1.45,1.45,0,0,0-.06-.68c0-.14-.21-.07-.32-.07H2.43c-.14,0-.14-.09-.14-.19s0-.2.13-.21H23l.45,0c.1-.14,0-.3.05-.45s0-.21.12-.18a.21.21,0,0,1,.08.11,11.5,11.5,0,0,1,0,1.66.35.35,0,0,1,0,.14A.83.83,0,0,1,23.58,17.07Z"/><path class="cls-7" d="M41.34,10.54c.14.05.28.16.42,0l.4.17a1.54,1.54,0,0,1,.3.49.37.37,0,0,1,0,.18c0,.19-.16.22-.32.16l-.06,0-.05,0L42,11.39a.48.48,0,0,0-.52-.25H25.31a1.19,1.19,0,0,1-.64-.08c-.13-.24.06-.29.22-.36a1.79,1.79,0,0,1,.46,0c.17,0,.33-.07.5-.05s.51.05.74-.08a3.47,3.47,0,0,0,1.4,0Z"/><path d="M43.87,16.72l.15-.07c.21.09.45,0,.66.07A1.94,1.94,0,0,1,46,17.89c0,.07,0,.15,0,.23a1.88,1.88,0,0,1-2.6,2.05,1.91,1.91,0,0,1-1.15-1.64.28.28,0,0,1-.06-.18,1.93,1.93,0,0,1,1.34-1.62A.41.41,0,0,1,43.87,16.72Z"/><path class="cls-8" d="M.83,14.77c0-.13,0-.25.18-.25H22.9c.17,0,.36.07.51-.07h0c.26.13.26.27,0,.41-.12-.13-.28-.06-.42-.06H1.32Z"/><path class="cls-9" d="M42.24,18.36v.17l-4.3,0H30l0-.16H42a.31.31,0,0,1,.1-.05A.17.17,0,0,1,42.24,18.36Z"/><path class="cls-10" d="M42.4,11.35v-.14a.15.15,0,0,1,.25,0c.45.58,1.09,1,1.54,1.53a3.06,3.06,0,0,1,.46.42c0,.06.08.12,0,.17a.18.18,0,0,1-.21,0l-.18.07a.9.9,0,0,1-.52-.35c-.35-.43-.7-.84-1.08-1.24A2,2,0,0,1,42.4,11.35Z"/><path class="cls-11" d="M23.41,14.85a.31.31,0,0,0,0-.41l.09-.32a.07.07,0,0,1,.11,0,1.29,1.29,0,0,1,0,.8.22.22,0,0,1-.09.1c-.21.17,0,.45-.15.62Z"/><path class="cls-12" d="M47,16.25a1.86,1.86,0,0,1,0-1c.11.1.08.24.07.36S47.16,16.05,47,16.25Z"/><path class="cls-13" d="M47.21,17.48a1.16,1.16,0,0,1,0-.82A1,1,0,0,1,47.21,17.48Z"/><path class="cls-14" d="M42.65,11.2H42.4l-.24-.51A1.56,1.56,0,0,1,42.65,11.2Z"/><path d="M44.45,13.31c.09,0,.29.06.14-.17,0,0,.07,0,.11,0s.26.14.23.33A1.14,1.14,0,0,1,44.45,13.31Z"/><path class="cls-15" d="M44.7,13.14h-.11a1.12,1.12,0,0,1-.4-.41C44.45,12.76,44.55,13,44.7,13.14Z"/><path class="cls-16" d="M46,18.12a.15.15,0,0,1-.07-.17c.06-.05,0-.19.16-.18l.17.1s.12.06.06.15S46.06,18,46,18.12Z"/><path class="cls-17" d="M47,16.25c.06-.21,0-.45.08-.66v.79C47.05,16.37,47,16.31,47,16.25Z"/><path class="cls-18" d="M46.3,18l-.06-.15h.29C46.54,18.06,46.41,18,46.3,18Z"/><path class="cls-19" d="M23.48,17.39l.11-.1c.08.15.13.3,0,.44Z"/><path class="cls-20" d="M47,15.11c-.07-.09-.19-.16-.09-.3C47,14.89,47.1,15,47,15.11Z"/><path class="cls-21" d="M23.82,12.49c0-.1,0-.2-.13-.2H1.12c-.14,0-.14-.1-.15-.2s0-.19.15-.19H1.4l4.36,0h18a.24.24,0,0,0,.22-.08c.08,0,.11,0,.13.1a.6.6,0,0,1-.18.55A.11.11,0,0,1,23.82,12.49Z"/><path d="M23.49,13.55H2.88c-.1,0-.14-.05-.14-.15s0-.19.15-.19H23.21c.16,0,.37.1.46-.14a.06.06,0,0,1,.1,0,.5.5,0,0,1-.1.48A.15.15,0,0,1,23.49,13.55Z"/><path class="cls-21" d="M25,10.77l-.32.17c-.05.06,0,.14-.07.19a.34.34,0,0,1-.19.09c-.12,0-.08-.15-.16-.19H4.54l-.21,0c-.1-.25,0-.38.26-.37.48,0,1,0,1.43,0H24.53C24.67,10.66,24.86,10.55,25,10.77Z"/><path class="cls-22" d="M25,10.77c-.11-.12-.26-.06-.39-.06q-9.9,0-19.8,0c-.21,0-.5-.09-.43.31-.14-.34-.12-.37.19-.39a2.62,2.62,0,0,1,.28,0H25.36s0,0,0,0h0Z"/><path class="cls-23" d="M23.73,13.06h-.06a1.42,1.42,0,0,1,.15-.58h.08A.39.39,0,0,1,23.73,13.06Z"/><path class="cls-24" d="M23.49,13.55h.14a.45.45,0,0,1-.06.57h-.08Z"/><path class="cls-25" d="M24.08,11.94l-.09-.1c.05-.11,0-.25.16-.33a.07.07,0,0,1,.1,0C24.29,11.71,24.27,11.86,24.08,11.94Z"/><path class="cls-26" d="M25.36,10.68v0c.16,0,.32-.19.49,0A.69.69,0,0,1,25.36,10.68Z"/><path class="cls-27" d="M24.21,11.51h-.06c0-.16.14-.3.06-.48.13,0,.08.13.17.15C24.44,11.35,24.37,11.45,24.21,11.51Z"/><path class="cls-1" d="M23.58,16.89V15.11a.6.6,0,0,1,.5-.13H38.33c.52,0,.61.07.59.58a4.16,4.16,0,0,1-.08,1.49.93.93,0,0,1-.44,0c-2.27,0-4.54,0-6.81,0a13.67,13.67,0,0,1-1.57,0,.32.32,0,0,1-.27-.15,2.37,2.37,0,0,0-1.37-.83,5.47,5.47,0,0,1-.81,0,2.51,2.51,0,0,0-1.38.81,7.72,7.72,0,0,1-1.86.08A1.14,1.14,0,0,1,23.58,16.89Z"/><path class="cls-1" d="M42.08,16.92l-.17.14a.87.87,0,0,1-.38.11H39.27a.53.53,0,0,1-.3-.09,6.39,6.39,0,0,1,0-2,.74.74,0,0,1,.46-.1H44c.5,0,.52,0,.52.53-.06.18.16.48-.2.56l-.31.08c-.11,0-.23.09-.34,0-.26.19-.59.12-.88.27a4.44,4.44,0,0,0-.57.3C42.15,16.75,42.08,16.8,42.08,16.92Z"/><path class="cls-1" d="M44.11,13.55l.41.48c0,.35.15.7-.07,1-1.82,0-3.64,0-5.46,0a.38.38,0,0,1-.12-.33c0-1.13,0-2.26,0-3.39a.59.59,0,0,1,.06-.14.35.35,0,0,1,.46,0,.26.26,0,0,1,0,.24.58.58,0,0,0,0,.5c0,.14,0,.28.08.41.07.29,0,.61.14.89a.45.45,0,0,0,.33.22,4,4,0,0,0,1.09.06H43c.23,0,.44,0,.42-.36L43.3,13c0-.07-.08-.16,0-.22s.18,0,.24.06A2.53,2.53,0,0,1,44.11,13.55Z"/><path class="cls-1" d="M41.75,17.22a7.34,7.34,0,0,1-.24.89,19.42,19.42,0,0,1-2.53,0,1.43,1.43,0,0,1,0-1c.88-.07,1.77,0,2.66,0C41.7,17.1,41.76,17.13,41.75,17.22Z"/><path class="cls-28" d="M44.11,13.55l-.79-.75.14.26a.14.14,0,0,1-.09.11.6.6,0,0,1-.19-.06.45.45,0,0,1-.19,0A2.84,2.84,0,0,1,42.17,12c0-.17-.19-.27-.22-.44a.23.23,0,0,1,0-.11.09.09,0,0,1,.1,0v0a.06.06,0,0,0,.09,0c.09,0,.25.2.24-.08l1.29,1.44a3.59,3.59,0,0,0,.58.59C44.15,13.38,44.08,13.42,44.11,13.55Z"/><path class="cls-29" d="M31.55,17.06h7.26a.09.09,0,0,1,.1,0,.11.11,0,0,1,0,.11.08.08,0,0,1-.1,0H31.55s0,0,0,0Z"/><path class="cls-30" d="M46.07,17.77c-.11,0,0,.23-.16.18a2.15,2.15,0,0,0-1.22-1.15c0-.08,0-.12.07-.15A1.38,1.38,0,0,1,46.07,17.77Z"/><path d="M39,15h5.52s.06,0,.08,0v.56s0,0-.06,0c.07-.42-.13-.49-.52-.49-1.67,0-3.35,0-5,0-.06,0-.1,0-.12-.06l0-.05A.08.08,0,0,1,39,15Z"/><path class="cls-31" d="M42.24,18.36l-.15,0a.28.28,0,0,1,.07-.31,1.45,1.45,0,0,1,.93-1.23c.13,0,.24-.1.37-.15s.12.06.08.15a1.79,1.79,0,0,0-1.15,1.14Z"/><path class="cls-32" d="M38.91,17.13a0,0,0,0,1,0-.07,0,0,0,0,1,.08,0h2.92c0,.11-.06.15-.16.16s-.16-.08-.25-.08H39A0,0,0,0,1,38.91,17.13Z"/><path class="cls-33" d="M23.58,16.89a25.25,25.25,0,0,0,2.61,0,.6.6,0,0,1-.42.15c-.59-.06-1.18,0-1.76,0a.82.82,0,0,1-.44,0Z"/><path class="cls-9" d="M39,18.11h2.53c0,.1-.12.09-.2.08H39a.06.06,0,0,1,0-.05Z"/><path class="cls-34" d="M46,16.25c0-.12-.14-.27.08-.34.18.11.38,0,.56.07s.06.21-.08.26A1.06,1.06,0,0,1,46,16.25Z"/><path class="cls-9" d="M23.57,17h1.81c.13,0,.27,0,.39.06l-2.19,0Z"/><path class="cls-9" d="M39,18.11v.07c-.21,0-.12-.18-.13-.28a4.84,4.84,0,0,0,0-.76h.1a.12.12,0,0,1,.08,0Z"/><path d="M31.55,17.06s0,.05,0,.07A5.6,5.6,0,0,1,30,17.06Z"/><path class="cls-35" d="M44.76,16.65l-.07.15c-.22-.07-.47,0-.67-.15C44.27,16.65,44.52,16.51,44.76,16.65Z"/><path class="cls-36" d="M27.57,16.08a1.32,1.32,0,0,1,.81,0A.92.92,0,0,1,27.57,16.08Z"/><path class="cls-19" d="M44.59,15l-.08,0V14C44.7,14.35,44.57,14.69,44.59,15Z"/><path class="cls-37" d="M27.25,16.41c0,.11.15,0,.18.11-.14.08-.27.19-.44,0A.23.23,0,0,1,27.25,16.41Z"/><path class="cls-38" d="M43.54,16.8l-.08-.15c.15-.09.3-.15.41.07Z"/><path class="cls-39" d="M44.53,15.58h.06c0,.13,0,.27,0,.4s-.1.22-.24.1C44.61,16,44.46,15.74,44.53,15.58Z"/><path class="cls-1" d="M26.85,16.82a.27.27,0,0,1-.34.14.21.21,0,0,1,.25-.22S26.85,16.77,26.85,16.82Z"/><path class="cls-40" d="M26.41,17.05c.06.11.13.23-.06.35v-.31S26.37,17,26.41,17.05Z"/><path class="cls-41" d="M46,16.25h.56A.46.46,0,0,1,46,16.25Z"/><path class="cls-19" d="M46.63,16c-.19,0-.39.1-.56-.07C46.26,15.94,46.46,15.84,46.63,16Z"/><path class="cls-42" d="M42.16,18l-.07.31H42C42,18.23,41.93,18.05,42.16,18Z"/><path class="cls-43" d="M43.71,16.16c.11,0,.23-.15.34,0C43.94,16.25,43.82,16.3,43.71,16.16Z"/><path class="cls-1" d="M26.85,16.82l-.09-.08.23-.18C27,16.68,27,16.79,26.85,16.82Z"/><path class="cls-9" d="M42.08,16.92c0-.17,0-.23.18-.19Z"/><path class="cls-44" d="M29,18.23a.91.91,0,0,1-1,.94,1,1,0,0,1-1-.93,1,1,0,0,1,1.06-.94A.88.88,0,0,1,29,18.23Z"/><path class="cls-9" d="M39,17.05h-.18a16,16,0,0,0,0-1.7c0-.17-.06-.26-.24-.24h-15a.09.09,0,0,1,0-.07l0,0a.8.8,0,0,1,.54-.11H38.33a1.29,1.29,0,0,1,.44,0,.28.28,0,0,1,.14.1l.08.08Z"/><path class="cls-9" d="M38.91,15h-.1a.86.86,0,0,1-.13-.59v-2.6c0-.57,0-.59-.6-.59H25.28c-.25,0-.52.07-.73-.13,0-.06,0-.14.08-.16.13.16.3.08.45.08H41.64c0,.26-.26.18-.41.18a10.79,10.79,0,0,1-2-.06.29.29,0,0,0-.27,0h0c-.05,1.14,0,2.27,0,3.41a1,1,0,0,1,0,.44Z"/><path class="cls-45" d="M39,11.19c.08-.16.24-.08.36-.08h1.91c.13,0,.27.05.38-.07.16,0,.34.06.36.28a.09.09,0,0,1-.08.09.75.75,0,0,1-.33-.07,20.59,20.59,0,0,0-2.08,0,.17.17,0,0,1-.12,0C39.27,11.13,39.12,11.2,39,11.19Z"/><path class="cls-46" d="M41.92,11.34l.08,0,.08.11-.09,0C41.92,11.44,41.88,11.42,41.92,11.34Z"/><path class="cls-47" d="M42.16,11.43c0,.08-.06.1-.09,0Z"/><path class="cls-44" d="M44.13,19.45a1,1,0,0,1-1-.95,1,1,0,0,1,1-.95,1,1,0,0,1,1,.94A1,1,0,0,1,44.13,19.45Z"/><path class="cls-1" d="M24.55,11.1H38.33c.52,0,.52,0,.52.54,0,1.12,0,2.24,0,3.37H24l-.37,0a4.31,4.31,0,0,1,0-.88l.06-.57.1-.49a1,1,0,0,0,.17-.57,1.78,1.78,0,0,0,.18-.55.71.71,0,0,0,.13-.43l.17-.33Z"/><path class="cls-48" d="M24.31,16.45c-.16.23-.34.12-.47,0a.27.27,0,0,1,.06-.39c.15-.1.33-.15.4.11C24.36,16.25,24.28,16.35,24.31,16.45Z"/><path class="cls-49" d="M24.65,16.51c-.1-.15,0-.27.1-.31a.6.6,0,0,1,.57.17c.08.08,0,.16-.13.19S24.82,16.56,24.65,16.51Z"/><path class="cls-50" d="M24.65,16.51c.18,0,.37-.1.54,0C25,16.55,24.82,16.63,24.65,16.51Z"/><path class="cls-51" d="M24.31,16.45a.19.19,0,0,1,0-.29C24.42,16.25,24.45,16.35,24.31,16.45Z"/><path class="cls-6" d="M43.37,13.16l.09-.1c.2.3,0,.53-.23.53a17.86,17.86,0,0,1-3.43-.05c0-.1.06-.13.13-.16.8-.08,1.6,0,2.4,0h.6l.17,0A.69.69,0,0,0,43.37,13.16Z"/><path class="cls-9" d="M38.9,15V11.49a.44.44,0,0,1,.06-.31L39,15Z"/><path class="cls-52" d="M41.92,11.34l.07.1v.08c-.05.06-.09.13-.16.16a.17.17,0,0,1-.17,0,.71.71,0,0,0-.4-.19,8.35,8.35,0,0,0-1.87.07c-.07,0-.12,0-.1-.13l.1-.14h.07a16.3,16.3,0,0,1,2.21,0Z"/><path class="cls-53" d="M40,14.21h0c.15.1,0,.17,0,.19a.77.77,0,0,1-.68,0c-.09-.06-.07-.13,0-.16h0a2.44,2.44,0,0,1,.54,0Z"/><path d="M39.54,13.33c-.25-.3-.13-.66-.16-1,0,0,.08,0,.12,0a1.85,1.85,0,0,1,.14.81A.23.23,0,0,1,39.54,13.33Z"/><path class="cls-54" d="M39.31,14.21a.38.38,0,0,1,.65,0h0a2.43,2.43,0,0,1-.66,0Z"/><path class="cls-55" d="M39.29,11.41l.09.1a.2.2,0,0,1,.06.23.23.23,0,0,1-.15.19A.51.51,0,0,1,39.29,11.41Z"/><path class="cls-56" d="M39.54,13.33l0-.21a.44.44,0,0,1,.33.34l-.09.08A.29.29,0,0,1,39.54,13.33Z"/><path class="cls-57" d="M39.29,11.93l.08-.17a.42.42,0,0,1,.07.57h-.06C39.26,12.22,39.31,12.07,39.29,11.93Z"/><path class="cls-58" d="M42.22,11.92a5.44,5.44,0,0,0,.84,1.13c.16.13.1.23,0,.31a2.91,2.91,0,0,1-.59,0,.36.36,0,0,1-.35-.37,3.62,3.62,0,0,0-.17-.74c0-.17-.18-.39.12-.49A.19.19,0,0,1,42.22,11.92Z"/><path class="cls-1" d="M43.37,13.16c0,.16,0,.27-.23.22a.8.8,0,0,1,.08-.4C43.33,13,43.29,13.13,43.37,13.16Z"/><path class="cls-59" d="M42.22,11.92l-.14-.08c-.1-.07-.22-.11-.24-.26s.1-.06.15-.06S42.26,11.72,42.22,11.92Z"/><path class="cls-60" d="M43.22,13a.56.56,0,0,1-.08.4s0,.08-.1.07a.09.09,0,0,1,0-.07.12.12,0,0,1,0-.08c.07-.08,0-.16,0-.25Z"/><path class="cls-61" d="M28.25,17.71l.21.25c.17.08.11.24.12.37s-.14.23-.19.35l-.14.09a.85.85,0,0,1-.52-.09l-.17-.08a.45.45,0,0,1-.08-.48.56.56,0,0,1,.24-.4A3.13,3.13,0,0,1,28.25,17.71Z"/><path class="cls-62" d="M28.25,17.71a.47.47,0,0,1-.53,0A.42.42,0,0,1,28.25,17.71Z"/><path class="cls-63" d="M27.73,18.68c.17,0,.36,0,.52.09C28.05,18.9,27.86,18.93,27.73,18.68Z"/><path class="cls-64" d="M27.48,18.12c0,.17.09.32.08.48A.28.28,0,0,1,27.48,18.12Z"/><path class="cls-65" d="M28.55,18.36a.7.7,0,0,0-.09-.4c.28,0,.13.25.16.4S28.57,18.4,28.55,18.36Z"/><path class="cls-66" d="M28.55,18.36a.08.08,0,0,0,.07,0,.35.35,0,0,1-.23.32C28.38,18.54,28.47,18.46,28.55,18.36Z"/><path class="cls-67" d="M41.67,11.26H39.46A6.83,6.83,0,0,1,41.67,11.26Z"/><path class="cls-61" d="M43.63,18.35c.2-.42.41-.52.74-.35s.48.32.32.67-.46.47-.88.26a.36.36,0,0,1-.24-.28A.28.28,0,0,1,43.63,18.35Z"/><path class="cls-68" d="M43.63,18.35l0,.34s0,0-.07,0S43.38,18.41,43.63,18.35Z"/><path class="cls-69" d="M43.54,18.69h.07l.2.24C43.57,19,43.6,18.8,43.54,18.69Z"/><path class="cls-70" d="M30.44,13.48c0,.2-.06.42-.34.18.08-.12,0-.26,0-.37s-.07,0,0,0,0,0,0,0a.91.91,0,0,1-.09.17c-.07.11,0,.32-.23.27s-.05-.22-.05-.34,0-.11,0-.16,0-.07,0-.09c0-.32.12-.51.48-.42a.88.88,0,0,0,.36,0c.23,0,.3.09.28.28s-.05.39-.08.59-.07.15-.16.15-.14-.1-.13-.2S30.54,13.43,30.44,13.48Z"/><path class="cls-71" d="M32.5,12.91c0-.15,0-.22,0-.3s.07-.18.18-.16.1.13.09.22c0,.26-.09.51-.13.76s0,.28-.17.3-.2-.13-.24-.26a1.51,1.51,0,0,0-.09-.18c-.14.15,0,.52-.28.44s0-.32,0-.49a5.06,5.06,0,0,1,.08-.52c0-.11,0-.26.16-.29s.24.09.28.24S32.45,12.78,32.5,12.91Z"/><path class="cls-72" d="M24.89,12.86c.1.13.36-.06.37.15a1.1,1.1,0,0,1-.17.77c-.11.13-.28.05-.43,0a.2.2,0,0,1-.13-.08c-.24-.34,0-.68,0-1s.24-.28.43-.28.24-.07.29.07-.06.22-.2.24A.2.2,0,0,0,24.89,12.86Z"/><path class="cls-70" d="M28.39,12.87c.22-.08,0-.52.35-.41s0,.37,0,.56a2.34,2.34,0,0,1-.08.52c0,.12,0,.22-.19.22s-.12-.14-.12-.24v-.28c-.21,0-.16.16-.17.27s0,.29-.23.24-.08-.21-.07-.31c0-.25.08-.51.13-.76s0-.28.18-.25.13.18.11.29A.16.16,0,0,0,28.39,12.87Z"/><path class="cls-73" d="M37.52,13.56v.14c-.24.14-.28,0-.29-.2s0-.21-.1,0,0,.33-.2.29-.07-.22-.08-.34,0,0,0,0c0-.22,0-.55.17-.62a2.29,2.29,0,0,1,.83,0c.08,0,.1.09.12.15a1.43,1.43,0,0,1-.1.79c0,.12-.2.13-.26,0S37.65,13.49,37.52,13.56Z"/><path class="cls-74" d="M34.57,12.81c0-.12.15-.1.23-.06s0,.14,0,.2-.15.4-.24.6-.17.36-.39.11c0,0,0-.08-.08,0-.43.35-.32,0-.34-.25a2.16,2.16,0,0,1,0-.36c0-.1-.08-.28.11-.28s.11.18.15.28.1-.48.41-.21c0,0,0,.11,0,.11S34.53,12.85,34.57,12.81Z"/><path class="cls-72" d="M31.37,13.4c.07.12.3,0,.25.21s-.15.18-.28.17-.32,0-.35-.2a1.6,1.6,0,0,1,.09-.65.37.37,0,0,1,.41-.26.24.24,0,0,1,.25.22c0,.19,0,.39-.25.43C31.45,13.32,31.42,13.36,31.37,13.4Z"/><path class="cls-75" d="M25.73,13.4c0,.14.27,0,.24.2a.21.21,0,0,1-.16.17c-.15,0-.31.06-.42-.07a.88.88,0,0,1,.22-.95c.16-.07.37-.15.46.08a.32.32,0,0,1-.18.47C25.83,13.33,25.76,13.33,25.73,13.4Z"/><path class="cls-76" d="M29.77,13.15v.09c-.19,0-.13.17-.17.27a.38.38,0,0,1-.48.26c-.26,0-.26-.23-.23-.43A2.33,2.33,0,0,1,29,13a.4.4,0,0,1,.42-.32.34.34,0,0,1,.31.36C29.7,13.08,29.71,13.13,29.77,13.15Z"/><path class="cls-77" d="M33.61,13.12c0,.08,0,.23-.08.37s-.28.32-.5.27-.26-.23-.21-.44a3.5,3.5,0,0,1,.14-.46.36.36,0,0,1,.45-.18C33.62,12.72,33.63,12.88,33.61,13.12Z"/><path class="cls-78" d="M36.74,13.08a3.36,3.36,0,0,1-.13.48.38.38,0,0,1-.48.21c-.2,0-.24-.2-.21-.38a1.3,1.3,0,0,1,.16-.54.33.33,0,0,1,.42-.17A.34.34,0,0,1,36.74,13.08Z"/><path class="cls-79" d="M35.53,13.81c-.3,0-.42-.12-.37-.4s.09-.47.13-.71a.34.34,0,0,1,.38-.28c.1,0,.21,0,.24.11s-.06.15-.14.21a.48.48,0,0,0,0,.82c.07,0,.09.1,0,.17S35.61,13.8,35.53,13.81Z"/><path class="cls-80" d="M26.21,13.31a.9.9,0,0,1,.11-.58c.07-.08.13-.24.28-.13a.2.2,0,0,1,.08.31.54.54,0,0,0-.06.66c.08.15-.09.2-.21.21s-.23,0-.23-.14S26.2,13.45,26.21,13.31Z"/><path class="cls-81" d="M27.28,13.31c0-.22,0-.45.17-.61s.11-.22.25-.14a.25.25,0,0,1,.1.35.49.49,0,0,0-.09.65c.07.11,0,.18-.11.21s-.26.05-.3-.11A1.35,1.35,0,0,1,27.28,13.31Z"/><path class="cls-82" d="M26.74,13.52l.15-.88c0-.11,0-.23.18-.21s.14.14.12.25c0,.29-.08.59-.13.88,0,.12,0,.21-.19.2S26.75,13.62,26.74,13.52Z"/><path class="cls-83" d="M37.12,13.47a.36.36,0,0,1,.17-.37l0,.45c0,.22.1.2.25.15C37.25,13.84,37.25,13.84,37.12,13.47Z"/><path class="cls-84" d="M35,13.62c-.05.1-.1.17-.19.15s-.07-.1-.06-.16,0-.13.13-.11A.15.15,0,0,1,35,13.62Z"/><path class="cls-85" d="M30,13.47a.62.62,0,0,1,.13-.38,1,1,0,0,1-.06.57Z"/><path class="cls-86" d="M37.52,13.56c0-.1,0-.19.09-.25a.26.26,0,0,1,0,.33Z"/><path class="cls-87" d="M34.57,12.81l-.09.31a.33.33,0,0,1,0-.31Z"/><path class="cls-88" d="M30.44,13.48c0-.08,0-.19.09-.15s0,.15,0,.23Z"/><path class="cls-1" d="M42,12.23a1.71,1.71,0,0,1,.19.76.3.3,0,0,0,.22.32s0,0,.05.07a.12.12,0,0,1-.05.07H39.89l-.33-.34-.12-.79-.07-.57v-.25c.1-.16.27-.16.43-.16.47,0,.94,0,1.41,0a.48.48,0,0,1,.54.32C41.92,11.82,41.86,12.07,42,12.23Z"/><path class="cls-61" d="M42.4,13.45v-.06a.91.91,0,0,1,.65,0,.43.43,0,0,1,0,0Z"/><path class="cls-89" d="M42,12.23a1,1,0,0,1-.23-.56l.08-.09a.6.6,0,0,1,.24.26C41.74,11.9,42.07,12.11,42,12.23Z"/><path class="cls-90" d="M39.3,14.2a1,1,0,0,1,.66,0A.59.59,0,0,1,39.3,14.2Z"/><path class="cls-9" d="M43.05,13.4H42.4v-.08h.65Z"/><path class="cls-1" d="M24.83,13a.45.45,0,0,1,0,.46C24.74,13.33,24.81,13.2,24.83,13Z"/><path class="cls-91" d="M29.13,13.51a.63.63,0,0,1,0-.19c.05-.11,0-.28.14-.34s.09,0,.1,0,0,.28-.1.41A.16.16,0,0,1,29.13,13.51Z"/><path class="cls-92" d="M33.27,13s.07.06.07.08,0,.36-.17.47c0,0-.09,0-.09-.06A.51.51,0,0,1,33.27,13Z"/><path class="cls-93" d="M36.24,13.53l0-.07a.57.57,0,0,1,.14-.48s.09,0,.09,0A.49.49,0,0,1,36.24,13.53Z"/></svg>