<?xml version="1.0"?>
<svg xmlns="http://www.w3.org/2000/svg" xmlns:xlink="http://www.w3.org/1999/xlink" version="1.1" id="Capa_1" x="0px" y="0px" viewBox="0 0 512 512" style="enable-background:new 0 0 512 512;" xml:space="preserve" width="512px" height="512px"><g transform="matrix(0.461222 0 0 0.461222 137.927 137.927)"><g>
	<g>
		<path d="M173.555,129.305c-0.15-2.67-1.33-5.119-3.32-6.889c-1.84-1.65-4.2-2.55-6.659-2.55c-2.85,0-5.569,1.22-7.459,3.34    c-4.689,5.239-9.439,10.569-14.038,15.718c-3.09,3.47-6.179,6.929-9.269,10.389c-3.67,4.12-3.31,10.449,0.8,14.118    c1.84,1.64,4.2,2.54,6.659,2.54c2.85,0,5.569-1.21,7.459-3.34c2.96-3.31,5.909-6.619,8.859-9.929    c4.729-5.299,9.629-10.789,14.438-16.178C172.805,134.534,173.705,131.975,173.555,129.305z" data-original="#000000" class="active-path" data-old_color="#000000" fill="#868686"/>
	</g>
</g><g>
	<g>
		<path d="M243.766,42.605c-1.87-1.77-4.32-2.75-6.899-2.75c-2.76,0-5.329,1.1-7.239,3.1c-7.759,8.149-15.628,16.538-24.037,25.637    c-1.82,1.96-2.76,4.509-2.65,7.179c0.1,2.67,1.24,5.139,3.2,6.949c1.86,1.71,4.27,2.66,6.789,2.66c2.78,0,5.459-1.17,7.339-3.21    c8.329-9.009,16.118-17.318,23.837-25.427C247.916,52.754,247.756,46.415,243.766,42.605z" data-original="#000000" class="active-path" data-old_color="#000000" fill="#868686"/>
	</g>
</g><g>
	<g>
		<path d="M245.096,149.203c-8.599-9.339-16.408-17.758-23.867-25.717c-1.88-2.01-4.539-3.16-7.299-3.16    c-2.54,0-4.969,0.96-6.829,2.7c-4.029,3.77-4.229,10.109-0.46,14.138c7.409,7.909,15.178,16.278,23.747,25.587    c1.88,2.05,4.569,3.22,7.349,3.22c2.52,0,4.919-0.94,6.769-2.64c1.97-1.81,3.11-4.27,3.22-6.939S246.906,151.172,245.096,149.203z    " data-original="#000000" class="active-path" data-old_color="#000000" fill="#868686"/>
	</g>
</g><g>
	<g>
		<path d="M166.835,67.222c-8.419-8.399-16.888-16.668-25.177-24.597c-1.87-1.79-4.32-2.77-6.909-2.77    c-2.76,0-5.319,1.09-7.229,3.08c-1.84,1.93-2.83,4.469-2.77,7.139c0.06,2.67,1.15,5.159,3.08,6.999c0.01,0.01,0.01,0.01,0.01,0.01    c8.109,7.759,16.478,15.938,24.877,24.307c1.89,1.88,4.399,2.91,7.059,2.91c2.68,0,5.199-1.04,7.089-2.94    c1.88-1.89,2.92-4.399,2.91-7.069C169.775,71.622,168.725,69.112,166.835,67.222z" data-original="#000000" class="active-path" data-old_color="#000000" fill="#868686"/>
	</g>
</g><g>
	<g>
		<path d="M195.012,95.889c0,0,0-0.01-0.01-0.01c-1.9-1.97-4.449-3.05-7.189-3.05c-2.6,0-5.059,0.99-6.939,2.8    c-1.92,1.86-3.01,4.349-3.05,7.019c-0.05,2.67,0.94,5.199,2.8,7.119c1.9,1.97,4.449,3.06,7.199,3.06c2.6,0,5.059-1,6.939-2.8    c1.92-1.86,3-4.349,3.05-7.019S196.872,97.809,195.012,95.889z" data-original="#000000" class="active-path" data-old_color="#000000" fill="#868686"/>
	</g>
</g><g>
	<g>
		<path d="M305.139,123.026c-1.86-1.74-4.289-2.7-6.829-2.7c-2.76,0-5.419,1.15-7.299,3.16    c-7.369,7.869-15.178,16.278-23.867,25.717c-3.74,4.06-3.47,10.399,0.58,14.128c1.85,1.7,4.26,2.64,6.769,2.64    c2.79,0,5.479-1.17,7.359-3.22c0.01-0.01,0.01-0.01,0.01-0.01c8.689-9.439,16.458-17.808,23.737-25.577    C309.369,133.134,309.159,126.795,305.139,123.026z" data-original="#000000" class="active-path" data-old_color="#000000" fill="#868686"/>
	</g>
</g><g>
	<g>
		<path d="M331.376,95.629c-1.88-1.81-4.339-2.8-6.949-2.8c-2.73,0-5.279,1.08-7.179,3.04c-0.01,0.01-0.01,0.01-0.02,0.01    c-3.82,3.97-3.71,10.319,0.26,14.138c1.87,1.81,4.339,2.81,6.939,2.81c2.74,0,5.299-1.09,7.199-3.06c0,0,0-0.01,0.01-0.01    c1.85-1.92,2.84-4.449,2.79-7.109C334.376,99.968,333.296,97.479,331.376,95.629z" data-original="#000000" class="active-path" data-old_color="#000000" fill="#868686"/>
	</g>
</g><g>
	<g>
		<path d="M384.73,42.935c-1.9-1.99-4.469-3.08-7.229-3.08c-2.59,0-5.039,0.98-6.909,2.77c-8.289,7.929-16.768,16.208-25.187,24.597    c-3.9,3.89-3.91,10.239-0.02,14.138c1.89,1.9,4.409,2.94,7.079,2.94c2.67,0,5.179-1.03,7.059-2.91    c8.369-8.339,16.738-16.518,24.897-24.317C388.4,53.264,388.539,46.924,384.73,42.935z" data-original="#000000" class="active-path" data-old_color="#000000" fill="#868686"/>
	</g>
</g><g>
	<g>
		<path d="M379.431,149.313c-3.1-3.47-6.189-6.939-9.289-10.409c-4.589-5.149-9.339-10.469-14.018-15.698    c-1.9-2.12-4.609-3.34-7.459-3.34c-2.46,0-4.829,0.9-6.659,2.54c-4.109,3.68-4.469,10.009-0.79,14.118    c4.63,5.189,9.259,10.369,13.888,15.558c3.13,3.52,6.269,7.029,9.409,10.549c1.89,2.12,4.609,3.34,7.459,3.34    c2.46,0,4.819-0.9,6.659-2.54C382.74,159.761,383.1,153.432,379.431,149.313z" data-original="#000000" class="active-path" data-old_color="#000000" fill="#868686"/>
	</g>
</g><g>
	<g>
		<path d="M306.659,68.592c-8.409-9.099-16.278-17.488-24.037-25.637c-1.91-2-4.479-3.1-7.239-3.1c-2.58,0-5.029,0.98-6.899,2.75    c-3.99,3.81-4.149,10.149-0.34,14.138c7.669,8.059,15.468,16.378,23.827,25.427c1.89,2.04,4.57,3.21,7.349,3.21    c2.52,0,4.929-0.94,6.779-2.66C310.149,78.981,310.399,72.641,306.659,68.592z" data-original="#000000" class="active-path" data-old_color="#000000" fill="#868686"/>
	</g>
</g><g>
	<g>
		<path d="M195.422,242.352c-1.86-1.73-4.28-2.68-6.819-2.68c-2.76,0-5.429,1.15-7.309,3.17c0,0-0.01,0-0.01,0.01    c-1.82,1.95-2.77,4.5-2.68,7.169c0.1,2.67,1.23,5.139,3.18,6.959c1.86,1.73,4.279,2.69,6.819,2.69c2.76,0,5.429-1.16,7.309-3.18    c0.01-0.01,0.01-0.01,0.01-0.01c1.82-1.96,2.76-4.499,2.67-7.169C198.502,246.641,197.372,244.171,195.422,242.352z" data-original="#000000" class="active-path" data-old_color="#000000" fill="#868686"/>
	</g>
</g><g>
	<g>
		<path d="M244.556,188.698c-1.84-1.68-4.229-2.61-6.729-2.61c-2.81,0-5.499,1.19-7.389,3.26    c-7.259,7.959-14.768,16.198-22.237,24.347c-3.72,4.07-3.45,10.399,0.62,14.128c1.85,1.69,4.24,2.63,6.749,2.63    c2.8,0,5.489-1.18,7.379-3.25c7.199-7.859,14.338-15.688,22.267-24.377C248.926,198.747,248.636,192.407,244.556,188.698z" data-original="#000000" class="active-path" data-old_color="#000000" fill="#868686"/>
	</g>
</g><g>
	<g>
		<path d="M244.736,295.595c-6.859-7.399-14.138-15.328-22.267-24.237c-1.89-2.08-4.579-3.27-7.389-3.27    c-2.5,0-4.889,0.93-6.729,2.61c-4.08,3.71-4.37,10.049-0.66,14.128c8.079,8.859,15.398,16.828,22.377,24.367    c1.89,2.03,4.559,3.2,7.339,3.2c2.52,0,4.939-0.95,6.789-2.67C248.246,305.974,248.486,299.635,244.736,295.595z" data-original="#000000" class="active-path" data-old_color="#000000" fill="#868686"/>
	</g>
</g><g>
	<g>
		<path d="M170.415,213.795c-8.599-9.509-15.668-17.278-22.227-24.457c-1.9-2.07-4.589-3.25-7.389-3.25    c-2.5,0-4.899,0.93-6.739,2.62c-1.97,1.8-3.12,4.269-3.24,6.939c-0.12,2.66,0.8,5.219,2.61,7.189c0,0,0,0.01,0.01,0.01    c6.649,7.279,13.688,15.018,22.147,24.367c1.89,2.09,4.599,3.29,7.419,3.29c2.48,0,4.859-0.92,6.699-2.59    C173.795,224.214,174.115,217.884,170.415,213.795z" data-original="#000000" class="active-path" data-old_color="#000000" fill="#868686"/>
	</g>
</g><g>
	<g>
		<path d="M303.899,270.698c-1.85-1.68-4.239-2.61-6.739-2.61c-2.81,0-5.499,1.19-7.389,3.27    c-8.099,8.879-15.378,16.808-22.267,24.237c-1.81,1.96-2.76,4.509-2.65,7.179c0.1,2.66,1.23,5.129,3.19,6.949    c1.85,1.72,4.27,2.67,6.799,2.67c2.77,0,5.449-1.17,7.329-3.21c0.01,0,0.01,0,0.01-0.01c7.019-7.569,14.338-15.538,22.367-24.347    c1.8-1.98,2.72-4.539,2.6-7.199C307.019,274.958,305.869,272.498,303.899,270.698z" data-original="#000000" class="active-path" data-old_color="#000000" fill="#868686"/>
	</g>
</g><g>
	<g>
		<path d="M378.181,188.708c-1.85-1.69-4.24-2.62-6.749-2.62c-2.79,0-5.479,1.18-7.369,3.24l-0.01,0.01    c-6.719,7.349-13.998,15.348-22.227,24.457c-1.79,1.98-2.71,4.539-2.58,7.209c0.14,2.67,1.3,5.119,3.28,6.909    c1.85,1.67,4.23,2.59,6.709,2.59c2.82,0,5.529-1.2,7.419-3.29c8.479-9.379,15.518-17.118,22.157-24.377    C382.53,198.767,382.25,192.427,378.181,188.708z" data-original="#000000" class="active-path" data-old_color="#000000" fill="#868686"/>
	</g>
</g><g>
	<g>
		<path d="M330.966,242.862c-0.01-0.01-0.01-0.01-0.01-0.01c-1.89-2.02-4.549-3.18-7.319-3.18c-2.54,0-4.959,0.95-6.809,2.68    c-1.96,1.82-3.09,4.299-3.18,6.969c-0.09,2.67,0.86,5.209,2.68,7.169c1.88,2.02,4.549,3.18,7.319,3.18    c2.53,0,4.949-0.96,6.809-2.69c1.96-1.82,3.08-4.289,3.18-6.959C333.726,247.351,332.776,244.811,330.966,242.862z" data-original="#000000" class="active-path" data-old_color="#000000" fill="#868686"/>
	</g>
</g><g>
	<g>
		<path d="M304.039,213.695c-7.649-8.349-15.178-16.598-22.237-24.347c-1.89-2.07-4.589-3.26-7.389-3.26    c-2.5,0-4.889,0.93-6.739,2.61c-4.07,3.71-4.359,10.049-0.65,14.128c0,0,0,0,0.01,0c7.869,8.639,14.978,16.438,22.257,24.377    c1.89,2.06,4.579,3.25,7.379,3.25c2.5,0,4.899-0.94,6.749-2.63c1.97-1.81,3.12-4.27,3.23-6.939    C306.769,218.214,305.839,215.665,304.039,213.695z" data-original="#000000" class="active-path" data-old_color="#000000" fill="#868686"/>
	</g>
</g><g>
	<g>
		<path d="M431.914,223.004c-1.62,0-3.21,0.09-4.799,0.21c-0.94-58.533,1.9-117.126,8.549-175.229    c1.55-12.938-2.06-25.077-10.149-34.186C417.616,4.899,406.367,0,393.829,0H118.171c-12.539,0-23.787,4.899-31.686,13.798    c-8.089,9.109-11.699,21.247-10.159,34.136c6.659,58.143,9.499,116.746,8.559,175.279c-1.59-0.12-3.18-0.21-4.799-0.21    c-33.766,0-61.233,27.477-61.233,61.243c0,19.788,9.679,38.375,25.617,49.794v78.371c-0.2,12.119,4.25,23.717,12.219,31.836    c7.929,8.079,18.708,12.349,31.176,12.349h13.928v26.937c0,4.669-3.8,8.469-8.469,8.469c-5.519,0-9.999,4.479-9.999,9.999    S87.805,512,93.324,512c15.698,0,28.467-12.768,28.467-28.467v-26.937h268.578v26.937c0,15.698,12.768,28.467,28.467,28.467    c5.519,0,9.999-4.479,9.999-9.999s-4.479-9.999-9.999-9.999c-4.669,0-8.469-3.799-8.469-8.469v-26.937h13.768    c12.469,0,23.247-4.27,31.176-12.349c7.969-8.119,12.419-19.718,12.219-31.836v-78.371c15.938-11.419,25.617-30.006,25.617-49.794    C493.147,250.481,465.68,223.004,431.914,223.004z M101.443,27.067c4.049-4.559,9.989-7.069,16.728-7.069h275.658    c6.739,0,12.678,2.51,16.728,7.069c4.25,4.779,6.109,11.369,5.249,18.588c-6.929,60.553-9.799,121.606-8.609,182.579    c-21.388,9.479-36.376,30.836-36.516,55.663c-0.01,0.17-0.01,0.35-0.01,0.52v0.18c-4.039-4.14-8.129-8.369-12.349-12.768    c-1.91-1.99-4.469-3.08-7.219-3.08c-2.59,0-5.049,0.98-6.919,2.78c-1.93,1.85-3.02,4.339-3.08,7.009    c-0.05,2.67,0.93,5.199,2.78,7.129c7.589,7.909,19.258,19.788,26.787,27.417c0,0-0.01,10.329-0.01,10.469    c0.13,6.829-2.24,13.228-6.499,17.568c-4.14,4.219-9.819,6.349-16.898,6.349H164.736c-7.079,0-12.758-2.13-16.898-6.349    c-4.26-4.339-6.629-10.739-6.499-17.568c0-0.14-0.01-4.589-0.01-10.219c1.17-1.18,19.018-19.318,27.027-27.667    c1.85-1.93,2.84-4.459,2.78-7.139c-0.06-2.67-1.15-5.149-3.08-6.999c-1.87-1.8-4.32-2.78-6.919-2.78    c-2.75,0-5.309,1.09-7.219,3.08c-4.32,4.499-8.489,8.819-12.599,13.029v-0.96c-0.14-24.817-15.128-46.175-36.506-55.654    c1.19-60.983-1.69-122.046-8.619-182.629C95.334,38.435,97.194,31.846,101.443,27.067z M452.522,319.963    c-3.09,1.78-4.989,5.079-4.989,8.649v84.08c0.13,6.819-2.24,13.218-6.499,17.558c-4.13,4.209-9.819,6.349-16.898,6.349H87.865    c-7.079,0-12.768-2.14-16.898-6.349c-4.26-4.339-6.629-10.739-6.499-17.558v-84.08c0-3.57-1.9-6.869-4.989-8.649    c-12.729-7.369-20.628-21.048-20.628-35.716c0-22.737,18.498-41.245,41.235-41.245c22.697,0,41.175,18.438,41.235,41.125    l0.01,39.305c-0.15,12.069,4.299,23.607,12.239,31.696c7.759,7.909,18.258,12.169,30.406,12.339h184.048    c12.149-0.17,22.647-4.429,30.406-12.339c7.939-8.089,12.389-19.628,12.239-31.696l0.01-39.265    c0.04-22.707,18.528-41.165,41.235-41.165c22.737,0,41.235,18.508,41.235,41.245C473.15,298.915,465.251,312.593,452.522,319.963z    " data-original="#000000" class="active-path" data-old_color="#000000" fill="#868686"/>
	</g>
</g><g>
	<g>
		<path d="M87.155,277.177c-1.86-1.87-4.439-2.93-7.069-2.93s-5.209,1.06-7.069,2.93c-1.86,1.86-2.93,4.43-2.93,7.069    c0,2.63,1.07,5.209,2.93,7.069c1.86,1.86,4.44,2.93,7.069,2.93s5.209-1.07,7.069-2.93c1.86-1.86,2.93-4.439,2.93-7.069    C90.085,281.607,89.015,279.037,87.155,277.177z" data-original="#000000" class="active-path" data-old_color="#000000" fill="#868686"/>
	</g>
</g><g>
	<g>
		<path d="M141.818,394.944c-1.86-1.86-4.439-2.93-7.069-2.93c-2.64,0-5.209,1.07-7.069,2.93c-1.86,1.86-2.93,4.439-2.93,7.069    s1.07,5.209,2.93,7.069c1.86,1.86,4.429,2.93,7.069,2.93c2.63,0,5.209-1.07,7.069-2.93c1.86-1.86,2.93-4.44,2.93-7.069    S143.678,396.804,141.818,394.944z" data-original="#000000" class="active-path" data-old_color="#000000" fill="#868686"/>
	</g>
</g><g>
	<g>
		<path d="M202.501,394.944c-1.86-1.86-4.43-2.93-7.069-2.93c-2.63,0-5.199,1.07-7.069,2.93c-1.86,1.86-2.93,4.439-2.93,7.069    s1.07,5.209,2.93,7.069c1.87,1.86,4.44,2.93,7.069,2.93c2.64,0,5.209-1.07,7.069-2.93c1.87-1.86,2.93-4.44,2.93-7.069    S204.371,396.804,202.501,394.944z" data-original="#000000" class="active-path" data-old_color="#000000" fill="#868686"/>
	</g>
</g><g>
	<g>
		<path d="M263.194,394.944c-1.86-1.86-4.439-2.93-7.069-2.93c-2.63,0-5.209,1.07-7.069,2.93c-1.86,1.86-2.93,4.439-2.93,7.069    s1.07,5.209,2.93,7.069c1.86,1.86,4.44,2.93,7.069,2.93c2.63,0,5.209-1.07,7.069-2.93c1.86-1.86,2.93-4.44,2.93-7.069    S265.054,396.804,263.194,394.944z" data-original="#000000" class="active-path" data-old_color="#000000" fill="#868686"/>
	</g>
</g><g>
	<g>
		<path d="M323.887,394.944c-1.86-1.86-4.44-2.93-7.069-2.93c-2.64,0-5.209,1.07-7.069,2.93c-1.87,1.86-2.93,4.439-2.93,7.069    s1.06,5.209,2.93,7.069c1.86,1.86,4.429,2.93,7.069,2.93c2.63,0,5.209-1.07,7.069-2.93c1.86-1.86,2.93-4.44,2.93-7.069    S325.747,396.804,323.887,394.944z" data-original="#000000" class="active-path" data-old_color="#000000" fill="#868686"/>
	</g>
</g><g>
	<g>
		<path d="M384.57,394.944c-1.86-1.86-4.43-2.93-7.069-2.93c-2.63,0-5.209,1.07-7.069,2.93c-1.86,1.86-2.93,4.439-2.93,7.069    s1.07,5.209,2.93,7.069c1.86,1.86,4.44,2.93,7.069,2.93c2.64,0,5.209-1.07,7.069-2.93c1.87-1.86,2.93-4.44,2.93-7.069    S386.44,396.804,384.57,394.944z" data-original="#000000" class="active-path" data-old_color="#000000" fill="#868686"/>
	</g>
</g><g>
	<g>
		<path d="M438.984,277.177c-1.86-1.87-4.44-2.93-7.069-2.93s-5.209,1.06-7.069,2.93c-1.86,1.86-2.93,4.43-2.93,7.069    c0,2.63,1.07,5.209,2.93,7.069c1.86,1.86,4.439,2.93,7.069,2.93s5.209-1.07,7.069-2.93c1.86-1.86,2.93-4.439,2.93-7.069    C441.913,281.607,440.843,279.037,438.984,277.177z" data-original="#000000" class="active-path" data-old_color="#000000" fill="#868686"/>
	</g>
</g></g> </svg>
