<?xml version="1.0"?>
<svg xmlns="http://www.w3.org/2000/svg" id="_x33_0" enable-background="new 0 0 64 64" height="512px" viewBox="0 0 64 64" width="512px" class=""><g transform="matrix(0.443048 0 0 0.443048 17.8225 17.8225)"><g><path d="m14 28.172h2v5.657h-2z" transform="matrix(.707 -.707 .707 .707 -17.527 19.686)" data-original="#000000" class="active-path" data-old_color="#000000" fill="#868686"/><path d="m11 29.757h2v8.485h-2z" transform="matrix(.707 -.707 .707 .707 -20.527 18.444)" data-original="#000000" class="active-path" data-old_color="#000000" fill="#868686"/><path d="m36 11c1.654 0 3-1.346 3-3s-1.346-3-3-3-3 1.346-3 3 1.346 3 3 3zm0-4c.552 0 1 .449 1 1s-.448 1-1 1-1-.449-1-1 .448-1 1-1z" data-original="#000000" class="active-path" data-old_color="#000000" fill="#868686"/><path d="m44 11c1.654 0 3-1.346 3-3s-1.346-3-3-3-3 1.346-3 3 1.346 3 3 3zm0-4c.552 0 1 .449 1 1s-.448 1-1 1-1-.449-1-1 .448-1 1-1z" data-original="#000000" class="active-path" data-old_color="#000000" fill="#868686"/><path d="m52 11c1.654 0 3-1.346 3-3s-1.346-3-3-3-3 1.346-3 3 1.346 3 3 3zm0-4c.552 0 1 .449 1 1s-.448 1-1 1-1-.449-1-1 .448-1 1-1z" data-original="#000000" class="active-path" data-old_color="#000000" fill="#868686"/><path d="m27 5h-14v6h14zm-6 2v2h-2v-2zm-6 0h2v2h-2zm10 2h-2v-2h2z" data-original="#000000" class="active-path" data-old_color="#000000" fill="#868686"/><path d="m59 43.101v-37.101c0-2.757-2.243-5-5-5h-40c-2.757 0-5 2.243-5 5v15.7c-4.653 1.653-8 6.087-8 11.3s3.347 9.647 8 11.3v15.7c0 1.654 1.346 3 3 3h48c1.654 0 3-1.346 3-3v-12c0-2.414-1.721-4.434-4-4.899zm2 4.899v4h-1.49c-1.352 0-2.622-.526-3.577-1.481-.98-.98-2.282-1.519-3.666-1.519-1.028 0-2.023.302-2.875.871l-.392.261v-2.132c0-1.654 1.346-3 3-3h6c1.654 0 3 1.346 3 3zm-14 7h-4v-4h4zm-19-12.266c-1.057-.761-1.982-1.683-2.739-2.734h2.739zm14-1.734c-.406 0-.792.083-1.146.23l1.503-1.23h2.375c-.249.346-.517.679-.805 1zm3.898-3h-21.797c-.034-.073-.067-.147-.099-.221.382-.877.654-1.809.818-2.779h22.004c-.175 1.042-.488 2.047-.926 3zm-20.898-5c0-.683-.071-1.348-.181-2h22c.11.652.181 1.317.181 2zm-.7-4c-.094-.264-.189-.527-.3-.783 1.908-4.395 6.178-7.217 11-7.217 5.213 0 9.647 3.347 11.3 8zm5.7 11h9.198l-8.423 6.892c-.291.237-.775.004-.775-.366zm9.51 2.33c-.322.477-.51 1.052-.51 1.67v.292c-.856.302-1.739.512-2.64.615zm1.49 1.67c0-.552.448-1 1-1h9v.101c-1.213.247-2.253.946-2.974 1.899h-7.026zm16-1h-4v-5c0-.552.448-1 1-1h2c.552 0 1 .448 1 1zm0-37v7h-26v-10h23c1.654 0 3 1.346 3 3zm-43-3h15v10h-18v-7c0-1.654 1.346-3 3-3zm-3 12h46v20.184c-.314-.112-.648-.184-1-.184h-2c-1.654 0-3 1.346-3 3v3h-4.527c1.633-2.335 2.527-5.103 2.527-8 0-7.72-6.28-14-14-14-5.132 0-9.73 2.74-12.188 7.113-2.174-3.087-5.758-5.113-9.812-5.113-.683 0-1.348.071-2 .181zm-5.737 20h-2.061c-.132-.646-.202-1.315-.202-2s.07-1.354.202-2h2.062c-.167.641-.264 1.308-.264 2s.097 1.359.263 2zm-1.422 2h2.242c1.386 2.387 3.964 4 6.918 4 4.411 0 8-3.589 8-8s-3.589-8-8-8c-2.953 0-5.532 1.613-6.918 4h-2.242c1.547-3.527 5.068-6 9.159-6 5.514 0 10 4.486 10 10s-4.486 10-10 10c-4.091 0-7.612-2.473-9.159-6zm3.159-4c0-3.309 2.691-6 6-6s6 2.691 6 6-2.691 6-6 6-6-2.691-6-6zm6 12c4.058 0 7.646-2.03 9.819-5.122 1.226 2.168 3.01 3.975 5.181 5.233v1.416c0 1.364 1.109 2.473 2.474 2.473.568 0 1.124-.198 1.566-.559l1.838-1.504c.373.03.747.063 1.122.063.762 0 1.511-.076 2.252-.196-.16.367-.252.771-.252 1.196v7h-26v-10.181c.652.11 1.317.181 2 .181zm-2 15v-3h26v3c0 .352.072.686.184 1h-25.184c-.552 0-1-.448-1-1zm29 1c-.552 0-1-.448-1-1v-12c0-.552.448-1 1-1h7.101c-.066.323-.101.658-.101 1v1h-6v8h6v3c0 .351.061.688.171 1zm20 0h-10c-.552 0-1-.448-1-1v-7.465l1.502-1.001c1.228-.821 2.968-.65 4.017.398 1.333 1.334 3.105 2.068 4.991 2.068h1.49v6c0 .552-.448 1-1 1z" data-original="#000000" class="active-path" data-old_color="#000000" fill="#868686"/></g></g> </svg>
